<mxfile host="app.diagrams.net" modified="2023-05-03T05:12:28.861Z" agent="Mozilla/5.0 (Windows NT 10.0; Win64; x64) AppleWebKit/537.36 (KHTML, like Gecko) Chrome/112.0.0.0 Safari/537.36" etag="FmqPS81cGbks6_yMTCk4" version="21.2.3" type="google" pages="2">
  <diagram id="D8fa6SzRuzp65krqOeX7" name="Modelo E-R">
    <mxGraphModel grid="1" page="1" gridSize="10" guides="1" tooltips="1" connect="1" arrows="1" fold="1" pageScale="1" pageWidth="850" pageHeight="1100" math="0" shadow="0">
      <root>
        <mxCell id="0" />
        <mxCell id="1" parent="0" />
        <mxCell id="Kqt-vZ9Plk5DfBnfXzL9-3" value="Identificación personal" style="ellipse;whiteSpace=wrap;html=1;align=center;fontStyle=4;" vertex="1" parent="1">
          <mxGeometry x="-480" y="160" width="100" height="40" as="geometry" />
        </mxCell>
        <mxCell id="Kqt-vZ9Plk5DfBnfXzL9-4" value="Nombre completo" style="ellipse;whiteSpace=wrap;html=1;align=center;" vertex="1" parent="1">
          <mxGeometry x="-320" y="80" width="100" height="40" as="geometry" />
        </mxCell>
        <mxCell id="Kqt-vZ9Plk5DfBnfXzL9-5" value="Email" style="ellipse;whiteSpace=wrap;html=1;align=center;fontStyle=4;" vertex="1" parent="1">
          <mxGeometry x="-160" y="160" width="100" height="40" as="geometry" />
        </mxCell>
        <mxCell id="Kqt-vZ9Plk5DfBnfXzL9-6" value="Usuario" style="whiteSpace=wrap;html=1;align=center;" vertex="1" parent="1">
          <mxGeometry x="-320" y="160" width="100" height="40" as="geometry" />
        </mxCell>
        <mxCell id="Kqt-vZ9Plk5DfBnfXzL9-7" value="Primer nombre" style="ellipse;whiteSpace=wrap;html=1;align=center;" vertex="1" parent="1">
          <mxGeometry x="-480" y="80" width="100" height="40" as="geometry" />
        </mxCell>
        <mxCell id="Kqt-vZ9Plk5DfBnfXzL9-8" value="Segundo nombre" style="ellipse;whiteSpace=wrap;html=1;align=center;" vertex="1" parent="1">
          <mxGeometry x="-480" width="100" height="40" as="geometry" />
        </mxCell>
        <mxCell id="Kqt-vZ9Plk5DfBnfXzL9-9" value="Primer apellido" style="ellipse;whiteSpace=wrap;html=1;align=center;" vertex="1" parent="1">
          <mxGeometry x="-320" width="100" height="40" as="geometry" />
        </mxCell>
        <mxCell id="Kqt-vZ9Plk5DfBnfXzL9-10" value="Segundo apellido" style="ellipse;whiteSpace=wrap;html=1;align=center;" vertex="1" parent="1">
          <mxGeometry x="-160" width="100" height="40" as="geometry" />
        </mxCell>
        <mxCell id="Kqt-vZ9Plk5DfBnfXzL9-11" value="" style="endArrow=none;html=1;rounded=0;" edge="1" parent="1" source="Kqt-vZ9Plk5DfBnfXzL9-7" target="Kqt-vZ9Plk5DfBnfXzL9-4">
          <mxGeometry relative="1" as="geometry">
            <mxPoint x="-360" y="160" as="sourcePoint" />
            <mxPoint x="-415.72478777137553" y="2.850141485749532" as="targetPoint" />
          </mxGeometry>
        </mxCell>
        <mxCell id="Kqt-vZ9Plk5DfBnfXzL9-12" value="" style="endArrow=none;html=1;rounded=0;" edge="1" parent="1" source="Kqt-vZ9Plk5DfBnfXzL9-8" target="Kqt-vZ9Plk5DfBnfXzL9-4">
          <mxGeometry relative="1" as="geometry">
            <mxPoint x="-225" y="44" as="sourcePoint" />
            <mxPoint x="-389.9999999999998" as="targetPoint" />
          </mxGeometry>
        </mxCell>
        <mxCell id="Kqt-vZ9Plk5DfBnfXzL9-13" value="" style="endArrow=none;html=1;rounded=0;" edge="1" parent="1" source="Kqt-vZ9Plk5DfBnfXzL9-4" target="Kqt-vZ9Plk5DfBnfXzL9-9">
          <mxGeometry relative="1" as="geometry">
            <mxPoint x="-150.00000000000023" as="sourcePoint" />
            <mxPoint x="-85" y="106" as="targetPoint" />
          </mxGeometry>
        </mxCell>
        <mxCell id="Kqt-vZ9Plk5DfBnfXzL9-14" value="" style="endArrow=none;html=1;rounded=0;" edge="1" parent="1" source="Kqt-vZ9Plk5DfBnfXzL9-4" target="Kqt-vZ9Plk5DfBnfXzL9-10">
          <mxGeometry relative="1" as="geometry">
            <mxPoint x="-124.15654504829286" y="2.878711094494065" as="sourcePoint" />
            <mxPoint x="-75" y="116" as="targetPoint" />
          </mxGeometry>
        </mxCell>
        <mxCell id="Kqt-vZ9Plk5DfBnfXzL9-15" value="" style="endArrow=none;html=1;rounded=0;" edge="1" parent="1" source="Kqt-vZ9Plk5DfBnfXzL9-5" target="Kqt-vZ9Plk5DfBnfXzL9-6">
          <mxGeometry relative="1" as="geometry">
            <mxPoint x="-195" y="74" as="sourcePoint" />
            <mxPoint x="-65" y="126" as="targetPoint" />
          </mxGeometry>
        </mxCell>
        <mxCell id="Kqt-vZ9Plk5DfBnfXzL9-16" value="" style="endArrow=none;html=1;rounded=0;" edge="1" parent="1" source="Kqt-vZ9Plk5DfBnfXzL9-4" target="Kqt-vZ9Plk5DfBnfXzL9-6">
          <mxGeometry relative="1" as="geometry">
            <mxPoint x="-185" y="84" as="sourcePoint" />
            <mxPoint x="-55" y="136" as="targetPoint" />
          </mxGeometry>
        </mxCell>
        <mxCell id="Kqt-vZ9Plk5DfBnfXzL9-17" value="" style="endArrow=none;html=1;rounded=0;" edge="1" parent="1" source="Kqt-vZ9Plk5DfBnfXzL9-3" target="Kqt-vZ9Plk5DfBnfXzL9-6">
          <mxGeometry relative="1" as="geometry">
            <mxPoint x="-175" y="94" as="sourcePoint" />
            <mxPoint x="-45" y="146" as="targetPoint" />
          </mxGeometry>
        </mxCell>
        <mxCell id="Kqt-vZ9Plk5DfBnfXzL9-18" value="" style="endArrow=none;html=1;rounded=0;" edge="1" parent="1" source="Kqt-vZ9Plk5DfBnfXzL9-28" target="Kqt-vZ9Plk5DfBnfXzL9-19">
          <mxGeometry relative="1" as="geometry">
            <mxPoint x="-140" y="330" as="sourcePoint" />
            <mxPoint x="-10" y="382" as="targetPoint" />
          </mxGeometry>
        </mxCell>
        <mxCell id="Kqt-vZ9Plk5DfBnfXzL9-19" value="Fecha de ingreso" style="ellipse;whiteSpace=wrap;html=1;align=center;" vertex="1" parent="1">
          <mxGeometry x="-690" y="360" width="100" height="40" as="geometry" />
        </mxCell>
        <mxCell id="Kqt-vZ9Plk5DfBnfXzL9-20" value="Contraseña" style="ellipse;whiteSpace=wrap;html=1;align=center;" vertex="1" parent="1">
          <mxGeometry x="-690" y="520" width="100" height="40" as="geometry" />
        </mxCell>
        <mxCell id="Kqt-vZ9Plk5DfBnfXzL9-21" value="" style="endArrow=none;html=1;rounded=0;" edge="1" parent="1" source="Kqt-vZ9Plk5DfBnfXzL9-20" target="Kqt-vZ9Plk5DfBnfXzL9-28">
          <mxGeometry width="50" height="50" relative="1" as="geometry">
            <mxPoint x="-270" y="300" as="sourcePoint" />
            <mxPoint x="-220" y="250" as="targetPoint" />
          </mxGeometry>
        </mxCell>
        <mxCell id="Kqt-vZ9Plk5DfBnfXzL9-26" value="" style="triangle;whiteSpace=wrap;html=1;rotation=-90;" vertex="1" parent="1">
          <mxGeometry x="-300" y="360" width="60" height="80" as="geometry" />
        </mxCell>
        <mxCell id="Kqt-vZ9Plk5DfBnfXzL9-27" value="" style="endArrow=none;html=1;rounded=0;shape=link;" edge="1" parent="1" source="Kqt-vZ9Plk5DfBnfXzL9-26" target="Kqt-vZ9Plk5DfBnfXzL9-6">
          <mxGeometry relative="1" as="geometry">
            <mxPoint x="410" y="310" as="sourcePoint" />
            <mxPoint x="570" y="310" as="targetPoint" />
          </mxGeometry>
        </mxCell>
        <mxCell id="Kqt-vZ9Plk5DfBnfXzL9-28" value="Administrador" style="whiteSpace=wrap;html=1;align=center;" vertex="1" parent="1">
          <mxGeometry x="-520" y="440" width="100" height="40" as="geometry" />
        </mxCell>
        <mxCell id="Kqt-vZ9Plk5DfBnfXzL9-29" value="Cliente" style="whiteSpace=wrap;html=1;align=center;" vertex="1" parent="1">
          <mxGeometry x="-160" y="440" width="100" height="40" as="geometry" />
        </mxCell>
        <mxCell id="Kqt-vZ9Plk5DfBnfXzL9-30" value="" style="endArrow=none;html=1;rounded=0;" edge="1" parent="1" source="Kqt-vZ9Plk5DfBnfXzL9-26" target="Kqt-vZ9Plk5DfBnfXzL9-28">
          <mxGeometry relative="1" as="geometry">
            <mxPoint x="-230" y="370" as="sourcePoint" />
            <mxPoint x="-230" y="330" as="targetPoint" />
          </mxGeometry>
        </mxCell>
        <mxCell id="Kqt-vZ9Plk5DfBnfXzL9-31" value="" style="endArrow=none;html=1;rounded=0;" edge="1" parent="1" source="Kqt-vZ9Plk5DfBnfXzL9-26" target="Kqt-vZ9Plk5DfBnfXzL9-29">
          <mxGeometry relative="1" as="geometry">
            <mxPoint x="-220" y="380" as="sourcePoint" />
            <mxPoint x="-220" y="340" as="targetPoint" />
          </mxGeometry>
        </mxCell>
        <mxCell id="Kqt-vZ9Plk5DfBnfXzL9-32" value="DT" style="text;html=1;align=center;verticalAlign=middle;resizable=0;points=[];autosize=1;strokeColor=none;fillColor=none;" vertex="1" parent="1">
          <mxGeometry x="-270" y="290" width="40" height="30" as="geometry" />
        </mxCell>
        <mxCell id="Kqt-vZ9Plk5DfBnfXzL9-33" value="Rol" style="whiteSpace=wrap;html=1;align=center;" vertex="1" parent="1">
          <mxGeometry x="-520" y="720" width="100" height="40" as="geometry" />
        </mxCell>
        <mxCell id="Kqt-vZ9Plk5DfBnfXzL9-35" value="Asociado a" style="shape=rhombus;perimeter=rhombusPerimeter;whiteSpace=wrap;html=1;align=center;" vertex="1" parent="1">
          <mxGeometry x="-530" y="560" width="120" height="70" as="geometry" />
        </mxCell>
        <mxCell id="Kqt-vZ9Plk5DfBnfXzL9-37" value="N" style="endArrow=none;html=1;rounded=0;" edge="1" parent="1" source="Kqt-vZ9Plk5DfBnfXzL9-35" target="Kqt-vZ9Plk5DfBnfXzL9-33">
          <mxGeometry relative="1" as="geometry">
            <mxPoint x="-410" y="870" as="sourcePoint" />
            <mxPoint x="-360" y="870" as="targetPoint" />
          </mxGeometry>
        </mxCell>
        <mxCell id="Kqt-vZ9Plk5DfBnfXzL9-38" value="M" style="endArrow=none;html=1;rounded=0;shape=link;" edge="1" parent="1" source="Kqt-vZ9Plk5DfBnfXzL9-35" target="Kqt-vZ9Plk5DfBnfXzL9-28">
          <mxGeometry relative="1" as="geometry">
            <mxPoint x="-400" y="640" as="sourcePoint" />
            <mxPoint x="-350" y="640" as="targetPoint" />
          </mxGeometry>
        </mxCell>
        <mxCell id="Kqt-vZ9Plk5DfBnfXzL9-43" value="Nombre" style="ellipse;whiteSpace=wrap;html=1;align=center;fontStyle=4;" vertex="1" parent="1">
          <mxGeometry x="-690" y="720" width="100" height="40" as="geometry" />
        </mxCell>
        <mxCell id="Kqt-vZ9Plk5DfBnfXzL9-71" value="Parcela" style="whiteSpace=wrap;html=1;align=center;" vertex="1" parent="1">
          <mxGeometry x="400" y="960" width="100" height="40" as="geometry" />
        </mxCell>
        <mxCell id="Kqt-vZ9Plk5DfBnfXzL9-97" value="Tipo de visitante" style="whiteSpace=wrap;html=1;align=center;" vertex="1" parent="1">
          <mxGeometry x="1200" y="435" width="100" height="40" as="geometry" />
        </mxCell>
        <mxCell id="Kqt-vZ9Plk5DfBnfXzL9-99" value="Procedencia" style="ellipse;whiteSpace=wrap;html=1;align=center;fontStyle=4;" vertex="1" parent="1">
          <mxGeometry x="1200" y="360" width="100" height="40" as="geometry" />
        </mxCell>
        <mxCell id="qFDOHUSYHFr1o0WApgUc-2" value="Teléfono" style="ellipse;shape=doubleEllipse;margin=3;whiteSpace=wrap;html=1;align=center;" vertex="1" parent="1">
          <mxGeometry x="-160" y="80" width="100" height="40" as="geometry" />
        </mxCell>
        <mxCell id="qFDOHUSYHFr1o0WApgUc-3" value="" style="endArrow=none;html=1;rounded=0;" edge="1" parent="1" source="Kqt-vZ9Plk5DfBnfXzL9-6" target="qFDOHUSYHFr1o0WApgUc-2">
          <mxGeometry relative="1" as="geometry">
            <mxPoint x="-140" y="190" as="sourcePoint" />
            <mxPoint x="20" y="190" as="targetPoint" />
          </mxGeometry>
        </mxCell>
        <mxCell id="qFDOHUSYHFr1o0WApgUc-20" value="Número" style="ellipse;whiteSpace=wrap;html=1;align=center;fontStyle=4;" vertex="1" parent="1">
          <mxGeometry x="240" y="960" width="100" height="40" as="geometry" />
        </mxCell>
        <mxCell id="qFDOHUSYHFr1o0WApgUc-27" value="" style="endArrow=none;html=1;rounded=0;" edge="1" parent="1" source="qFDOHUSYHFr1o0WApgUc-20" target="Kqt-vZ9Plk5DfBnfXzL9-71">
          <mxGeometry relative="1" as="geometry">
            <mxPoint x="-310" y="860" as="sourcePoint" />
            <mxPoint x="-150" y="860" as="targetPoint" />
          </mxGeometry>
        </mxCell>
        <mxCell id="qFDOHUSYHFr1o0WApgUc-37" value="Fecha de salida" style="ellipse;whiteSpace=wrap;html=1;align=center;" vertex="1" parent="1">
          <mxGeometry x="-690" y="440" width="100" height="40" as="geometry" />
        </mxCell>
        <mxCell id="qFDOHUSYHFr1o0WApgUc-38" value="" style="endArrow=none;html=1;rounded=0;" edge="1" parent="1" source="qFDOHUSYHFr1o0WApgUc-37" target="Kqt-vZ9Plk5DfBnfXzL9-28">
          <mxGeometry relative="1" as="geometry">
            <mxPoint x="-480" y="470" as="sourcePoint" />
            <mxPoint x="-320" y="470" as="targetPoint" />
          </mxGeometry>
        </mxCell>
        <mxCell id="qFDOHUSYHFr1o0WApgUc-39" value="Placa de vehículo" style="ellipse;shape=doubleEllipse;margin=3;whiteSpace=wrap;html=1;align=center;" vertex="1" parent="1">
          <mxGeometry x="-160" y="560" width="100" height="40" as="geometry" />
        </mxCell>
        <mxCell id="1ZeVHOT2A63UaoM2Mehe-14" value="Genera" style="shape=rhombus;perimeter=rhombusPerimeter;whiteSpace=wrap;html=1;align=center;" vertex="1" parent="1">
          <mxGeometry x="510" y="275" width="120" height="60" as="geometry" />
        </mxCell>
        <mxCell id="1ZeVHOT2A63UaoM2Mehe-15" value="Pago" style="whiteSpace=wrap;html=1;align=center;" vertex="1" parent="1">
          <mxGeometry x="520" y="120" width="100" height="40" as="geometry" />
        </mxCell>
        <mxCell id="1ZeVHOT2A63UaoM2Mehe-19" value="Total" style="ellipse;whiteSpace=wrap;html=1;align=center;" vertex="1" parent="1">
          <mxGeometry x="680" y="40" width="100" height="40" as="geometry" />
        </mxCell>
        <mxCell id="1ZeVHOT2A63UaoM2Mehe-23" value="N" style="endArrow=none;html=1;rounded=0;" edge="1" parent="1" source="1ZeVHOT2A63UaoM2Mehe-14" target="1ZeVHOT2A63UaoM2Mehe-15">
          <mxGeometry width="50" height="50" relative="1" as="geometry">
            <mxPoint x="240" y="90" as="sourcePoint" />
            <mxPoint x="290" y="40" as="targetPoint" />
          </mxGeometry>
        </mxCell>
        <mxCell id="1ZeVHOT2A63UaoM2Mehe-25" value="Código" style="ellipse;whiteSpace=wrap;html=1;align=center;fontStyle=4;" vertex="1" parent="1">
          <mxGeometry x="360" y="40" width="100" height="40" as="geometry" />
        </mxCell>
        <mxCell id="1ZeVHOT2A63UaoM2Mehe-26" value="" style="endArrow=none;html=1;rounded=0;" edge="1" parent="1" source="1ZeVHOT2A63UaoM2Mehe-25" target="1ZeVHOT2A63UaoM2Mehe-15">
          <mxGeometry relative="1" as="geometry">
            <mxPoint x="-650" y="200" as="sourcePoint" />
            <mxPoint x="-490" y="200" as="targetPoint" />
          </mxGeometry>
        </mxCell>
        <mxCell id="1ZeVHOT2A63UaoM2Mehe-28" value="" style="endArrow=none;html=1;rounded=0;" edge="1" parent="1" source="1ZeVHOT2A63UaoM2Mehe-15" target="1ZeVHOT2A63UaoM2Mehe-19">
          <mxGeometry relative="1" as="geometry">
            <mxPoint x="450" y="480" as="sourcePoint" />
            <mxPoint x="-490" y="200" as="targetPoint" />
          </mxGeometry>
        </mxCell>
        <mxCell id="1ZeVHOT2A63UaoM2Mehe-29" value="Fecha" style="ellipse;whiteSpace=wrap;html=1;align=center;" vertex="1" parent="1">
          <mxGeometry x="520" y="40" width="100" height="40" as="geometry" />
        </mxCell>
        <mxCell id="1ZeVHOT2A63UaoM2Mehe-30" value="Tipo de cambio" style="ellipse;whiteSpace=wrap;html=1;align=center;" vertex="1" parent="1">
          <mxGeometry x="680" y="200" width="100" height="40" as="geometry" />
        </mxCell>
        <mxCell id="1ZeVHOT2A63UaoM2Mehe-31" value="" style="endArrow=none;html=1;rounded=0;" edge="1" parent="1" source="1ZeVHOT2A63UaoM2Mehe-15" target="1ZeVHOT2A63UaoM2Mehe-30">
          <mxGeometry width="50" height="50" relative="1" as="geometry">
            <mxPoint x="761.4101473413934" y="235.56099042601045" as="sourcePoint" />
            <mxPoint x="-570" y="120" as="targetPoint" />
          </mxGeometry>
        </mxCell>
        <mxCell id="1ZeVHOT2A63UaoM2Mehe-33" value="" style="endArrow=none;html=1;rounded=0;" edge="1" parent="1" source="1ZeVHOT2A63UaoM2Mehe-29" target="1ZeVHOT2A63UaoM2Mehe-15">
          <mxGeometry width="50" height="50" relative="1" as="geometry">
            <mxPoint x="-570" y="170" as="sourcePoint" />
            <mxPoint x="-520" y="120" as="targetPoint" />
          </mxGeometry>
        </mxCell>
        <mxCell id="1ZeVHOT2A63UaoM2Mehe-34" value="" style="endArrow=none;html=1;rounded=0;" edge="1" parent="1" source="qFDOHUSYHFr1o0WApgUc-39" target="Kqt-vZ9Plk5DfBnfXzL9-29">
          <mxGeometry width="50" height="50" relative="1" as="geometry">
            <mxPoint x="20" y="570" as="sourcePoint" />
            <mxPoint x="70" y="520" as="targetPoint" />
          </mxGeometry>
        </mxCell>
        <mxCell id="1ZeVHOT2A63UaoM2Mehe-41" value="" style="endArrow=none;html=1;rounded=0;" edge="1" parent="1" source="1ZeVHOT2A63UaoM2Mehe-113" target="sY47T2-COHp8lDWQmf8w-21">
          <mxGeometry relative="1" as="geometry">
            <mxPoint x="1060" y="400" as="sourcePoint" />
            <mxPoint x="340" y="680" as="targetPoint" />
          </mxGeometry>
        </mxCell>
        <mxCell id="1ZeVHOT2A63UaoM2Mehe-79" value="Tiempo de uso" style="ellipse;whiteSpace=wrap;html=1;align=center;" vertex="1" parent="1">
          <mxGeometry x="800" y="800" width="100" height="40" as="geometry" />
        </mxCell>
        <mxCell id="1ZeVHOT2A63UaoM2Mehe-80" value="" style="endArrow=none;html=1;rounded=0;" edge="1" parent="1" source="1ZeVHOT2A63UaoM2Mehe-79" target="sY47T2-COHp8lDWQmf8w-23">
          <mxGeometry relative="1" as="geometry">
            <mxPoint x="1360" y="310" as="sourcePoint" />
            <mxPoint x="1370" y="180" as="targetPoint" />
          </mxGeometry>
        </mxCell>
        <mxCell id="1ZeVHOT2A63UaoM2Mehe-100" value="Cupo" style="ellipse;whiteSpace=wrap;html=1;align=center;" vertex="1" parent="1">
          <mxGeometry x="400" y="1040" width="100" height="40" as="geometry" />
        </mxCell>
        <mxCell id="1ZeVHOT2A63UaoM2Mehe-101" value="N" style="endArrow=none;html=1;rounded=0;" edge="1" parent="1" source="sY47T2-COHp8lDWQmf8w-12" target="Kqt-vZ9Plk5DfBnfXzL9-71">
          <mxGeometry relative="1" as="geometry">
            <mxPoint x="-80" y="1040" as="sourcePoint" />
            <mxPoint x="80" y="1100" as="targetPoint" />
          </mxGeometry>
        </mxCell>
        <mxCell id="1ZeVHOT2A63UaoM2Mehe-103" value="" style="endArrow=none;html=1;rounded=0;" edge="1" parent="1" source="1ZeVHOT2A63UaoM2Mehe-120" target="sY47T2-COHp8lDWQmf8w-8">
          <mxGeometry relative="1" as="geometry">
            <mxPoint x="580" y="290" as="sourcePoint" />
            <mxPoint x="575" y="210" as="targetPoint" />
          </mxGeometry>
        </mxCell>
        <mxCell id="1ZeVHOT2A63UaoM2Mehe-104" value="" style="endArrow=none;html=1;rounded=0;" edge="1" parent="1" source="1ZeVHOT2A63UaoM2Mehe-121" target="sY47T2-COHp8lDWQmf8w-8">
          <mxGeometry relative="1" as="geometry">
            <mxPoint x="700.0000000000232" y="294.0000000000125" as="sourcePoint" />
            <mxPoint x="610" y="210" as="targetPoint" />
          </mxGeometry>
        </mxCell>
        <mxCell id="1ZeVHOT2A63UaoM2Mehe-105" value="" style="endArrow=none;html=1;rounded=0;" edge="1" parent="1" source="Kqt-vZ9Plk5DfBnfXzL9-71" target="1ZeVHOT2A63UaoM2Mehe-100">
          <mxGeometry relative="1" as="geometry">
            <mxPoint x="-440" y="800" as="sourcePoint" />
            <mxPoint x="-280" y="800" as="targetPoint" />
          </mxGeometry>
        </mxCell>
        <mxCell id="1ZeVHOT2A63UaoM2Mehe-113" value="Fecha y hora de solicitud" style="ellipse;whiteSpace=wrap;html=1;align=center;fontStyle=4;" vertex="1" parent="1">
          <mxGeometry x="360" y="360" width="100" height="40" as="geometry" />
        </mxCell>
        <mxCell id="1ZeVHOT2A63UaoM2Mehe-119" value="Incluye" style="shape=rhombus;perimeter=rhombusPerimeter;whiteSpace=wrap;html=1;align=center;" vertex="1" parent="1">
          <mxGeometry x="920" y="430" width="120" height="60" as="geometry" />
        </mxCell>
        <mxCell id="1ZeVHOT2A63UaoM2Mehe-120" value="Fecha de inicio" style="ellipse;whiteSpace=wrap;html=1;align=center;fontStyle=4;" vertex="1" parent="1">
          <mxGeometry x="240" y="640" width="100" height="40" as="geometry" />
        </mxCell>
        <mxCell id="1ZeVHOT2A63UaoM2Mehe-121" value="Fecha de fin" style="ellipse;whiteSpace=wrap;html=1;align=center;fontStyle=4;" vertex="1" parent="1">
          <mxGeometry x="240" y="720" width="100" height="40" as="geometry" />
        </mxCell>
        <mxCell id="1ZeVHOT2A63UaoM2Mehe-122" value="" style="endArrow=none;html=1;rounded=0;" edge="1" parent="1" source="Kqt-vZ9Plk5DfBnfXzL9-99" target="Kqt-vZ9Plk5DfBnfXzL9-97">
          <mxGeometry relative="1" as="geometry">
            <mxPoint x="910" y="530" as="sourcePoint" />
            <mxPoint x="1070" y="530" as="targetPoint" />
          </mxGeometry>
        </mxCell>
        <mxCell id="1ZeVHOT2A63UaoM2Mehe-135" value="" style="endArrow=none;html=1;rounded=0;" edge="1" parent="1" source="1ZeVHOT2A63UaoM2Mehe-119" target="LoYz6xhjWd8j18Qrhw2p-1">
          <mxGeometry relative="1" as="geometry">
            <mxPoint x="1350" y="370" as="sourcePoint" />
            <mxPoint x="1190.075453730581" y="513.9774082966892" as="targetPoint" />
          </mxGeometry>
        </mxCell>
        <mxCell id="1ZeVHOT2A63UaoM2Mehe-136" value="Estatus" style="ellipse;whiteSpace=wrap;html=1;align=center;fontStyle=4;" vertex="1" parent="1">
          <mxGeometry x="1360" y="430" width="100" height="40" as="geometry" />
        </mxCell>
        <mxCell id="1ZeVHOT2A63UaoM2Mehe-137" value="" style="endArrow=none;html=1;rounded=0;" edge="1" parent="1" source="1ZeVHOT2A63UaoM2Mehe-136" target="Kqt-vZ9Plk5DfBnfXzL9-97">
          <mxGeometry relative="1" as="geometry">
            <mxPoint x="1350" y="370" as="sourcePoint" />
            <mxPoint x="1510" y="370" as="targetPoint" />
          </mxGeometry>
        </mxCell>
        <mxCell id="LoYz6xhjWd8j18Qrhw2p-1" value="Categoría de pago" style="ellipse;whiteSpace=wrap;html=1;align=center;" vertex="1" parent="1">
          <mxGeometry x="930" y="520" width="100" height="40" as="geometry" />
        </mxCell>
        <mxCell id="B8EIARJEzoTsojzDx6ol-6" value="Tarifa" style="ellipse;whiteSpace=wrap;html=1;align=center;" vertex="1" parent="1">
          <mxGeometry x="1200" y="520" width="100" height="40" as="geometry" />
        </mxCell>
        <mxCell id="B8EIARJEzoTsojzDx6ol-7" value="Moneda" style="ellipse;whiteSpace=wrap;html=1;align=center;" vertex="1" parent="1">
          <mxGeometry x="1360" y="600" width="100" height="40" as="geometry" />
        </mxCell>
        <mxCell id="B8EIARJEzoTsojzDx6ol-8" value="" style="endArrow=none;html=1;rounded=0;" edge="1" parent="1" source="Kqt-vZ9Plk5DfBnfXzL9-97" target="B8EIARJEzoTsojzDx6ol-6">
          <mxGeometry relative="1" as="geometry">
            <mxPoint x="1580" y="470" as="sourcePoint" />
            <mxPoint x="1720" y="460" as="targetPoint" />
          </mxGeometry>
        </mxCell>
        <mxCell id="B8EIARJEzoTsojzDx6ol-9" value="" style="endArrow=none;html=1;rounded=0;" edge="1" parent="1" source="B8EIARJEzoTsojzDx6ol-6" target="B8EIARJEzoTsojzDx6ol-7">
          <mxGeometry relative="1" as="geometry">
            <mxPoint x="1611.2347523777216" y="465.6173761888608" as="sourcePoint" />
            <mxPoint x="1672" y="433" as="targetPoint" />
          </mxGeometry>
        </mxCell>
        <mxCell id="B8EIARJEzoTsojzDx6ol-11" value="Moneda" style="ellipse;whiteSpace=wrap;html=1;align=center;" vertex="1" parent="1">
          <mxGeometry x="680" y="120" width="100" height="40" as="geometry" />
        </mxCell>
        <mxCell id="B8EIARJEzoTsojzDx6ol-12" value="" style="endArrow=none;html=1;rounded=0;" edge="1" parent="1" source="1ZeVHOT2A63UaoM2Mehe-15" target="B8EIARJEzoTsojzDx6ol-11">
          <mxGeometry relative="1" as="geometry">
            <mxPoint x="340" y="20" as="sourcePoint" />
            <mxPoint x="500" y="20" as="targetPoint" />
          </mxGeometry>
        </mxCell>
        <mxCell id="riO0B1hnQ6P0g7jeHkSF-1" value="Estado de actividad" style="ellipse;whiteSpace=wrap;html=1;align=center;" vertex="1" parent="1">
          <mxGeometry x="-520" y="360" width="100" height="40" as="geometry" />
        </mxCell>
        <mxCell id="riO0B1hnQ6P0g7jeHkSF-2" value="" style="endArrow=none;html=1;rounded=0;" edge="1" parent="1" source="riO0B1hnQ6P0g7jeHkSF-1" target="Kqt-vZ9Plk5DfBnfXzL9-28">
          <mxGeometry relative="1" as="geometry">
            <mxPoint y="510" as="sourcePoint" />
            <mxPoint x="160" y="510" as="targetPoint" />
          </mxGeometry>
        </mxCell>
        <mxCell id="RWrSl44hWCOKPZgHyArZ-4" value="" style="endArrow=none;html=1;rounded=0;" edge="1" parent="1" source="Kqt-vZ9Plk5DfBnfXzL9-43" target="Kqt-vZ9Plk5DfBnfXzL9-33">
          <mxGeometry relative="1" as="geometry">
            <mxPoint x="-50" y="870" as="sourcePoint" />
            <mxPoint x="110" y="870" as="targetPoint" />
          </mxGeometry>
        </mxCell>
        <mxCell id="qe52rmB15biePx1LGS6w-1" value="Estado de pago" style="ellipse;whiteSpace=wrap;html=1;align=center;" vertex="1" parent="1">
          <mxGeometry x="360" y="120" width="100" height="40" as="geometry" />
        </mxCell>
        <mxCell id="qe52rmB15biePx1LGS6w-2" value="" style="endArrow=none;html=1;rounded=0;" edge="1" parent="1" source="1ZeVHOT2A63UaoM2Mehe-15" target="qe52rmB15biePx1LGS6w-1">
          <mxGeometry relative="1" as="geometry">
            <mxPoint x="280" y="419.99999999999955" as="sourcePoint" />
            <mxPoint x="540" y="-50" as="targetPoint" />
          </mxGeometry>
        </mxCell>
        <mxCell id="sY47T2-COHp8lDWQmf8w-3" value="Realiza" style="shape=rhombus;perimeter=rhombusPerimeter;whiteSpace=wrap;html=1;align=center;" vertex="1" parent="1">
          <mxGeometry x="160" y="425" width="120" height="70" as="geometry" />
        </mxCell>
        <mxCell id="sY47T2-COHp8lDWQmf8w-4" value="1" style="endArrow=none;html=1;rounded=0;" edge="1" parent="1" source="Kqt-vZ9Plk5DfBnfXzL9-29" target="sY47T2-COHp8lDWQmf8w-3">
          <mxGeometry width="50" height="50" relative="1" as="geometry">
            <mxPoint x="-60" y="450" as="sourcePoint" />
            <mxPoint x="990" y="470" as="targetPoint" />
          </mxGeometry>
        </mxCell>
        <mxCell id="sY47T2-COHp8lDWQmf8w-5" value="N" style="endArrow=none;html=1;rounded=0;" edge="1" parent="1" source="sY47T2-COHp8lDWQmf8w-3" target="sY47T2-COHp8lDWQmf8w-21">
          <mxGeometry width="50" height="50" relative="1" as="geometry">
            <mxPoint x="1050" y="530" as="sourcePoint" />
            <mxPoint x="1000" y="465.7692307692307" as="targetPoint" />
          </mxGeometry>
        </mxCell>
        <mxCell id="sY47T2-COHp8lDWQmf8w-6" value="" style="triangle;whiteSpace=wrap;html=1;rotation=-90;" vertex="1" parent="1">
          <mxGeometry x="540" y="530" width="60" height="80" as="geometry" />
        </mxCell>
        <mxCell id="sY47T2-COHp8lDWQmf8w-7" value="" style="endArrow=none;html=1;rounded=0;shape=link;" edge="1" parent="1" source="sY47T2-COHp8lDWQmf8w-6" target="sY47T2-COHp8lDWQmf8w-21">
          <mxGeometry width="50" height="50" relative="1" as="geometry">
            <mxPoint x="870" y="495" as="sourcePoint" />
            <mxPoint x="1050" y="505" as="targetPoint" />
          </mxGeometry>
        </mxCell>
        <mxCell id="sY47T2-COHp8lDWQmf8w-8" value="Reservación de parcela" style="whiteSpace=wrap;html=1;align=center;" vertex="1" parent="1">
          <mxGeometry x="400" y="640" width="100" height="40" as="geometry" />
        </mxCell>
        <mxCell id="sY47T2-COHp8lDWQmf8w-9" value="Reservación de servicio" style="whiteSpace=wrap;html=1;align=center;" vertex="1" parent="1">
          <mxGeometry x="640" y="640" width="100" height="40" as="geometry" />
        </mxCell>
        <mxCell id="sY47T2-COHp8lDWQmf8w-10" value="" style="endArrow=none;html=1;rounded=0;" edge="1" parent="1" source="sY47T2-COHp8lDWQmf8w-6" target="sY47T2-COHp8lDWQmf8w-8">
          <mxGeometry width="50" height="50" relative="1" as="geometry">
            <mxPoint x="870" y="490" as="sourcePoint" />
            <mxPoint x="920" y="440" as="targetPoint" />
          </mxGeometry>
        </mxCell>
        <mxCell id="sY47T2-COHp8lDWQmf8w-11" value="" style="endArrow=none;html=1;rounded=0;" edge="1" parent="1" source="sY47T2-COHp8lDWQmf8w-6" target="sY47T2-COHp8lDWQmf8w-9">
          <mxGeometry width="50" height="50" relative="1" as="geometry">
            <mxPoint x="870" y="490" as="sourcePoint" />
            <mxPoint x="920" y="440" as="targetPoint" />
          </mxGeometry>
        </mxCell>
        <mxCell id="sY47T2-COHp8lDWQmf8w-12" value="Corresponde a&amp;nbsp;" style="shape=rhombus;perimeter=rhombusPerimeter;whiteSpace=wrap;html=1;align=center;" vertex="1" parent="1">
          <mxGeometry x="390" y="785" width="120" height="70" as="geometry" />
        </mxCell>
        <mxCell id="sY47T2-COHp8lDWQmf8w-13" value="M" style="endArrow=none;html=1;rounded=0;" edge="1" parent="1" source="sY47T2-COHp8lDWQmf8w-8" target="sY47T2-COHp8lDWQmf8w-12">
          <mxGeometry width="50" height="50" relative="1" as="geometry">
            <mxPoint x="1096" y="640" as="sourcePoint" />
            <mxPoint x="1156" y="690" as="targetPoint" />
          </mxGeometry>
        </mxCell>
        <mxCell id="sY47T2-COHp8lDWQmf8w-14" value="DT" style="text;html=1;align=center;verticalAlign=middle;resizable=0;points=[];autosize=1;strokeColor=none;fillColor=none;" vertex="1" parent="1">
          <mxGeometry x="570" y="490" width="40" height="30" as="geometry" />
        </mxCell>
        <mxCell id="sY47T2-COHp8lDWQmf8w-15" value="Tipo de servicio" style="whiteSpace=wrap;html=1;align=center;" vertex="1" parent="1">
          <mxGeometry x="640" y="960" width="100" height="40" as="geometry" />
        </mxCell>
        <mxCell id="sY47T2-COHp8lDWQmf8w-17" value="Cupo" style="ellipse;whiteSpace=wrap;html=1;align=center;" vertex="1" parent="1">
          <mxGeometry x="800" y="960" width="100" height="40" as="geometry" />
        </mxCell>
        <mxCell id="sY47T2-COHp8lDWQmf8w-19" value="" style="endArrow=none;html=1;rounded=0;" edge="1" parent="1" source="sY47T2-COHp8lDWQmf8w-15" target="sY47T2-COHp8lDWQmf8w-17">
          <mxGeometry width="50" height="50" relative="1" as="geometry">
            <mxPoint x="750" y="1030" as="sourcePoint" />
            <mxPoint x="810" y="1030" as="targetPoint" />
          </mxGeometry>
        </mxCell>
        <mxCell id="sY47T2-COHp8lDWQmf8w-21" value="Reservación" style="whiteSpace=wrap;html=1;align=center;" vertex="1" parent="1">
          <mxGeometry x="520" y="440" width="100" height="40" as="geometry" />
        </mxCell>
        <mxCell id="sY47T2-COHp8lDWQmf8w-22" value="Tarifa" style="ellipse;whiteSpace=wrap;html=1;align=center;" vertex="1" parent="1">
          <mxGeometry x="640" y="1040" width="100" height="40" as="geometry" />
        </mxCell>
        <mxCell id="sY47T2-COHp8lDWQmf8w-23" value="Asociada a" style="shape=rhombus;perimeter=rhombusPerimeter;whiteSpace=wrap;html=1;align=center;" vertex="1" parent="1">
          <mxGeometry x="630" y="785" width="120" height="70" as="geometry" />
        </mxCell>
        <mxCell id="sY47T2-COHp8lDWQmf8w-24" value="M" style="endArrow=none;html=1;rounded=0;" edge="1" parent="1" source="sY47T2-COHp8lDWQmf8w-9" target="sY47T2-COHp8lDWQmf8w-23">
          <mxGeometry width="50" height="50" relative="1" as="geometry">
            <mxPoint x="460" y="700" as="sourcePoint" />
            <mxPoint x="460" y="820" as="targetPoint" />
          </mxGeometry>
        </mxCell>
        <mxCell id="sY47T2-COHp8lDWQmf8w-25" value="N" style="endArrow=none;html=1;rounded=0;" edge="1" parent="1" source="sY47T2-COHp8lDWQmf8w-23" target="sY47T2-COHp8lDWQmf8w-15">
          <mxGeometry relative="1" as="geometry">
            <mxPoint x="460" y="890" as="sourcePoint" />
            <mxPoint x="460" y="1010" as="targetPoint" />
          </mxGeometry>
        </mxCell>
        <mxCell id="sY47T2-COHp8lDWQmf8w-26" value="Monto" style="ellipse;whiteSpace=wrap;html=1;align=center;" vertex="1" parent="1">
          <mxGeometry x="800" y="1120" width="100" height="40" as="geometry" />
        </mxCell>
        <mxCell id="sY47T2-COHp8lDWQmf8w-27" value="Moneda" style="ellipse;whiteSpace=wrap;html=1;align=center;" vertex="1" parent="1">
          <mxGeometry x="800" y="1040" width="100" height="40" as="geometry" />
        </mxCell>
        <mxCell id="sY47T2-COHp8lDWQmf8w-28" value="" style="endArrow=none;html=1;rounded=0;" edge="1" parent="1" source="sY47T2-COHp8lDWQmf8w-22" target="sY47T2-COHp8lDWQmf8w-26">
          <mxGeometry relative="1" as="geometry">
            <mxPoint x="1601" y="444" as="sourcePoint" />
            <mxPoint x="1710" y="470" as="targetPoint" />
          </mxGeometry>
        </mxCell>
        <mxCell id="sY47T2-COHp8lDWQmf8w-29" value="" style="endArrow=none;html=1;rounded=0;" edge="1" parent="1" source="sY47T2-COHp8lDWQmf8w-22" target="sY47T2-COHp8lDWQmf8w-27">
          <mxGeometry relative="1" as="geometry">
            <mxPoint x="1620" y="460" as="sourcePoint" />
            <mxPoint x="1662" y="443" as="targetPoint" />
          </mxGeometry>
        </mxCell>
        <mxCell id="sY47T2-COHp8lDWQmf8w-34" value="" style="endArrow=none;html=1;rounded=0;" edge="1" parent="1" source="sY47T2-COHp8lDWQmf8w-22" target="sY47T2-COHp8lDWQmf8w-15">
          <mxGeometry width="50" height="50" relative="1" as="geometry">
            <mxPoint x="1040" y="900" as="sourcePoint" />
            <mxPoint x="1090" y="850" as="targetPoint" />
          </mxGeometry>
        </mxCell>
        <mxCell id="sY47T2-COHp8lDWQmf8w-38" value="1" style="endArrow=none;html=1;rounded=0;" edge="1" parent="1" source="sY47T2-COHp8lDWQmf8w-21" target="1ZeVHOT2A63UaoM2Mehe-14">
          <mxGeometry width="50" height="50" relative="1" as="geometry">
            <mxPoint x="290" y="400" as="sourcePoint" />
            <mxPoint x="340" y="350" as="targetPoint" />
          </mxGeometry>
        </mxCell>
        <mxCell id="sY47T2-COHp8lDWQmf8w-39" value="Nombre" style="ellipse;whiteSpace=wrap;html=1;align=center;fontStyle=4;" vertex="1" parent="1">
          <mxGeometry x="800" y="880" width="100" height="40" as="geometry" />
        </mxCell>
        <mxCell id="sY47T2-COHp8lDWQmf8w-40" value="" style="endArrow=none;html=1;rounded=0;" edge="1" parent="1" source="sY47T2-COHp8lDWQmf8w-39" target="sY47T2-COHp8lDWQmf8w-15">
          <mxGeometry relative="1" as="geometry">
            <mxPoint x="460" y="1010" as="sourcePoint" />
            <mxPoint x="460" y="1050" as="targetPoint" />
          </mxGeometry>
        </mxCell>
        <mxCell id="sY47T2-COHp8lDWQmf8w-41" value="N" style="endArrow=none;html=1;rounded=0;" edge="1" parent="1" source="1ZeVHOT2A63UaoM2Mehe-119" target="Kqt-vZ9Plk5DfBnfXzL9-97">
          <mxGeometry width="50" height="50" relative="1" as="geometry">
            <mxPoint x="1050" y="710" as="sourcePoint" />
            <mxPoint x="1100" y="660" as="targetPoint" />
          </mxGeometry>
        </mxCell>
        <mxCell id="sY47T2-COHp8lDWQmf8w-42" value="M" style="endArrow=none;html=1;rounded=0;" edge="1" parent="1" source="sY47T2-COHp8lDWQmf8w-21" target="1ZeVHOT2A63UaoM2Mehe-119">
          <mxGeometry width="50" height="50" relative="1" as="geometry">
            <mxPoint x="1050" y="680" as="sourcePoint" />
            <mxPoint x="1070" y="560" as="targetPoint" />
          </mxGeometry>
        </mxCell>
        <mxCell id="sY47T2-COHp8lDWQmf8w-43" value="Monto" style="ellipse;whiteSpace=wrap;html=1;align=center;" vertex="1" parent="1">
          <mxGeometry x="1360" y="520" width="100" height="40" as="geometry" />
        </mxCell>
        <mxCell id="sY47T2-COHp8lDWQmf8w-44" value="" style="endArrow=none;html=1;rounded=0;" edge="1" parent="1" source="B8EIARJEzoTsojzDx6ol-6" target="sY47T2-COHp8lDWQmf8w-43">
          <mxGeometry relative="1" as="geometry">
            <mxPoint x="1260" y="560" as="sourcePoint" />
            <mxPoint x="1260" y="600" as="targetPoint" />
          </mxGeometry>
        </mxCell>
        <mxCell id="sY47T2-COHp8lDWQmf8w-45" value="Tipo de visita" style="ellipse;whiteSpace=wrap;html=1;align=center;fontStyle=4;" vertex="1" parent="1">
          <mxGeometry x="1360" y="360" width="100" height="40" as="geometry" />
        </mxCell>
        <mxCell id="sY47T2-COHp8lDWQmf8w-46" value="" style="endArrow=none;html=1;rounded=0;" edge="1" parent="1" source="Kqt-vZ9Plk5DfBnfXzL9-97" target="sY47T2-COHp8lDWQmf8w-45">
          <mxGeometry relative="1" as="geometry">
            <mxPoint x="1260" y="480" as="sourcePoint" />
            <mxPoint x="1260" y="520" as="targetPoint" />
          </mxGeometry>
        </mxCell>
      </root>
    </mxGraphModel>
  </diagram>
  <diagram id="FkpZm7iR8bxo6Gf0Ejyg" name="Modelo relacional">
    <mxGraphModel grid="1" page="1" gridSize="10" guides="1" tooltips="1" connect="1" arrows="1" fold="1" pageScale="1" pageWidth="850" pageHeight="1100" math="0" shadow="0">
      <root>
        <mxCell id="0" />
        <mxCell id="1" parent="0" />
        <mxCell id="G2EhGgd-BieDhyvPyRMn-3" value="Usuario" style="rounded=0;whiteSpace=wrap;html=1;" vertex="1" parent="1">
          <mxGeometry x="40" y="40" width="120" height="40" as="geometry" />
        </mxCell>
        <mxCell id="G2EhGgd-BieDhyvPyRMn-4" value="&lt;u&gt;Email&lt;/u&gt;" style="rounded=0;whiteSpace=wrap;html=1;" vertex="1" parent="1">
          <mxGeometry x="40" y="80" width="120" height="40" as="geometry" />
        </mxCell>
        <mxCell id="G2EhGgd-BieDhyvPyRMn-6" value="PrimerNombre" style="rounded=0;whiteSpace=wrap;html=1;" vertex="1" parent="1">
          <mxGeometry x="280" y="80" width="120" height="40" as="geometry" />
        </mxCell>
        <mxCell id="G2EhGgd-BieDhyvPyRMn-7" value="SegundoNombre" style="rounded=0;whiteSpace=wrap;html=1;" vertex="1" parent="1">
          <mxGeometry x="400" y="80" width="120" height="40" as="geometry" />
        </mxCell>
        <mxCell id="G2EhGgd-BieDhyvPyRMn-8" value="PrimerApellido" style="rounded=0;whiteSpace=wrap;html=1;" vertex="1" parent="1">
          <mxGeometry x="520" y="80" width="120" height="40" as="geometry" />
        </mxCell>
        <mxCell id="G2EhGgd-BieDhyvPyRMn-9" value="SegundoApellido" style="rounded=0;whiteSpace=wrap;html=1;" vertex="1" parent="1">
          <mxGeometry x="640" y="80" width="120" height="40" as="geometry" />
        </mxCell>
        <mxCell id="G2EhGgd-BieDhyvPyRMn-10" value="Telefono" style="rounded=0;whiteSpace=wrap;html=1;" vertex="1" parent="1">
          <mxGeometry x="40" y="240" width="120" height="40" as="geometry" />
        </mxCell>
        <mxCell id="G2EhGgd-BieDhyvPyRMn-11" value="&lt;u&gt;EmailUsuario&lt;/u&gt;" style="rounded=0;whiteSpace=wrap;html=1;" vertex="1" parent="1">
          <mxGeometry x="40" y="280" width="120" height="40" as="geometry" />
        </mxCell>
        <mxCell id="G2EhGgd-BieDhyvPyRMn-12" value="FK(Usuario)" style="rounded=0;whiteSpace=wrap;html=1;" vertex="1" parent="1">
          <mxGeometry x="40" y="320" width="120" height="40" as="geometry" />
        </mxCell>
        <mxCell id="G2EhGgd-BieDhyvPyRMn-13" value="&lt;u&gt;Numero&lt;/u&gt;" style="rounded=0;whiteSpace=wrap;html=1;" vertex="1" parent="1">
          <mxGeometry x="160" y="280" width="120" height="40" as="geometry" />
        </mxCell>
        <mxCell id="DeBKQpgS0AdXYMMYFWvQ-1" value="PersonId" style="rounded=0;whiteSpace=wrap;html=1;" vertex="1" parent="1">
          <mxGeometry x="160" y="80" width="120" height="40" as="geometry" />
        </mxCell>
        <mxCell id="6jY_ThXa-aDyUxuQOMhe-20" value="Administrador" style="rounded=0;whiteSpace=wrap;html=1;" vertex="1" parent="1">
          <mxGeometry x="40" y="440" width="120" height="40" as="geometry" />
        </mxCell>
        <mxCell id="6jY_ThXa-aDyUxuQOMhe-21" value="&lt;u&gt;EmailUsuario&lt;/u&gt;" style="rounded=0;whiteSpace=wrap;html=1;" vertex="1" parent="1">
          <mxGeometry x="40" y="480" width="120" height="40" as="geometry" />
        </mxCell>
        <mxCell id="6jY_ThXa-aDyUxuQOMhe-22" value="FK(Usuario)" style="rounded=0;whiteSpace=wrap;html=1;" vertex="1" parent="1">
          <mxGeometry x="40" y="520" width="120" height="40" as="geometry" />
        </mxCell>
        <mxCell id="6jY_ThXa-aDyUxuQOMhe-23" value="FechaIngreso" style="rounded=0;whiteSpace=wrap;html=1;" vertex="1" parent="1">
          <mxGeometry x="160" y="480" width="120" height="40" as="geometry" />
        </mxCell>
        <mxCell id="6jY_ThXa-aDyUxuQOMhe-24" value="FechaSalida" style="rounded=0;whiteSpace=wrap;html=1;" vertex="1" parent="1">
          <mxGeometry x="280" y="480" width="120" height="40" as="geometry" />
        </mxCell>
        <mxCell id="6jY_ThXa-aDyUxuQOMhe-25" value="Contrasena" style="rounded=0;whiteSpace=wrap;html=1;" vertex="1" parent="1">
          <mxGeometry x="400" y="480" width="120" height="40" as="geometry" />
        </mxCell>
        <mxCell id="6jY_ThXa-aDyUxuQOMhe-26" value="" style="endArrow=none;dashed=1;html=1;dashPattern=1 3;strokeWidth=2;rounded=0;" edge="1" parent="1" source="6jY_ThXa-aDyUxuQOMhe-25" target="6jY_ThXa-aDyUxuQOMhe-27">
          <mxGeometry width="50" height="50" relative="1" as="geometry">
            <mxPoint x="570" y="650" as="sourcePoint" />
            <mxPoint x="468.57142857142844" y="560" as="targetPoint" />
          </mxGeometry>
        </mxCell>
        <mxCell id="6jY_ThXa-aDyUxuQOMhe-27" value="NUNCA guardar claves directamente, sino solo el hash (e.g., Argon2). En el inicio de sesión solo se valida si el hash de la clave ingresada coincide con el hash almacenado." style="shape=note;whiteSpace=wrap;html=1;backgroundOutline=1;darkOpacity=0.05;" vertex="1" parent="1">
          <mxGeometry x="440" y="240" width="160" height="160" as="geometry" />
        </mxCell>
        <mxCell id="EmVSwugjhua0iY-RNRY--1" value="EstadoActividad" style="rounded=0;whiteSpace=wrap;html=1;" vertex="1" parent="1">
          <mxGeometry x="520" y="480" width="120" height="40" as="geometry" />
        </mxCell>
        <mxCell id="EmVSwugjhua0iY-RNRY--2" value="Para borrado lógico, i.e., desactivar en lugar de eliminar tupla. Necesario para auditar accesos históricos." style="shape=note;whiteSpace=wrap;html=1;backgroundOutline=1;darkOpacity=0.05;" vertex="1" parent="1">
          <mxGeometry x="680" y="240" width="160" height="160" as="geometry" />
        </mxCell>
        <mxCell id="EmVSwugjhua0iY-RNRY--3" value="" style="endArrow=none;dashed=1;html=1;dashPattern=1 3;strokeWidth=2;rounded=0;" edge="1" parent="1" source="EmVSwugjhua0iY-RNRY--1" target="EmVSwugjhua0iY-RNRY--2">
          <mxGeometry width="50" height="50" relative="1" as="geometry">
            <mxPoint x="860" y="450" as="sourcePoint" />
            <mxPoint x="622.8571428571429" y="560" as="targetPoint" />
          </mxGeometry>
        </mxCell>
        <mxCell id="EmVSwugjhua0iY-RNRY--4" value="Rol" style="rounded=0;whiteSpace=wrap;html=1;" vertex="1" parent="1">
          <mxGeometry x="40" y="640" width="120" height="40" as="geometry" />
        </mxCell>
        <mxCell id="2rsxRjrkgRpbVNMzEIxT-1" value="Cliente" style="rounded=0;whiteSpace=wrap;html=1;" vertex="1" parent="1">
          <mxGeometry x="40" y="1000" width="120" height="40" as="geometry" />
        </mxCell>
        <mxCell id="2rsxRjrkgRpbVNMzEIxT-2" value="&lt;u&gt;EmailUsuario&lt;/u&gt;" style="rounded=0;whiteSpace=wrap;html=1;" vertex="1" parent="1">
          <mxGeometry x="40" y="1040" width="120" height="40" as="geometry" />
        </mxCell>
        <mxCell id="2rsxRjrkgRpbVNMzEIxT-3" value="FK(Usuario)" style="rounded=0;whiteSpace=wrap;html=1;" vertex="1" parent="1">
          <mxGeometry x="40" y="1080" width="120" height="40" as="geometry" />
        </mxCell>
        <mxCell id="2rsxRjrkgRpbVNMzEIxT-5" value="Vehiculo" style="rounded=0;whiteSpace=wrap;html=1;" vertex="1" parent="1">
          <mxGeometry x="40" y="1200" width="120" height="40" as="geometry" />
        </mxCell>
        <mxCell id="2rsxRjrkgRpbVNMzEIxT-6" value="&lt;u&gt;EmailCliente&lt;/u&gt;" style="rounded=0;whiteSpace=wrap;html=1;" vertex="1" parent="1">
          <mxGeometry x="40" y="1240" width="120" height="40" as="geometry" />
        </mxCell>
        <mxCell id="2rsxRjrkgRpbVNMzEIxT-7" value="FK(Cliente)" style="rounded=0;whiteSpace=wrap;html=1;" vertex="1" parent="1">
          <mxGeometry x="40" y="1280" width="120" height="40" as="geometry" />
        </mxCell>
        <mxCell id="2rsxRjrkgRpbVNMzEIxT-8" value="&lt;u&gt;Placa&lt;/u&gt;" style="rounded=0;whiteSpace=wrap;html=1;" vertex="1" parent="1">
          <mxGeometry x="160" y="1240" width="120" height="40" as="geometry" />
        </mxCell>
        <mxCell id="3dpYSZLMDqSO1D1mwGwg-14" value="AsociacionParcela" style="rounded=0;whiteSpace=wrap;html=1;" vertex="1" parent="1">
          <mxGeometry x="40" y="1800" width="120" height="40" as="geometry" />
        </mxCell>
        <mxCell id="3dpYSZLMDqSO1D1mwGwg-15" value="&lt;u&gt;FechaInicio&lt;/u&gt;" style="rounded=0;whiteSpace=wrap;html=1;" vertex="1" parent="1">
          <mxGeometry x="280" y="1640" width="120" height="40" as="geometry" />
        </mxCell>
        <mxCell id="3dpYSZLMDqSO1D1mwGwg-17" value="&lt;u&gt;IdCliente&lt;/u&gt;" style="rounded=0;whiteSpace=wrap;html=1;" vertex="1" parent="1">
          <mxGeometry x="40" y="1960" width="120" height="40" as="geometry" />
        </mxCell>
        <mxCell id="3dpYSZLMDqSO1D1mwGwg-18" value="FK(Cliente)" style="rounded=0;whiteSpace=wrap;html=1;" vertex="1" parent="1">
          <mxGeometry x="40" y="2000" width="120" height="40" as="geometry" />
        </mxCell>
        <mxCell id="3dpYSZLMDqSO1D1mwGwg-19" value="&lt;u&gt;FechaFin&lt;/u&gt;" style="rounded=0;whiteSpace=wrap;html=1;" vertex="1" parent="1">
          <mxGeometry x="400" y="1640" width="120" height="40" as="geometry" />
        </mxCell>
        <mxCell id="3dpYSZLMDqSO1D1mwGwg-21" value="Reservacion" style="rounded=0;whiteSpace=wrap;html=1;" vertex="1" parent="1">
          <mxGeometry x="40" y="1400" width="120" height="40" as="geometry" />
        </mxCell>
        <mxCell id="3dpYSZLMDqSO1D1mwGwg-23" value="&lt;u&gt;FechaSolicitud&lt;/u&gt;" style="rounded=0;whiteSpace=wrap;html=1;" vertex="1" parent="1">
          <mxGeometry x="160" y="1440" width="120" height="40" as="geometry" />
        </mxCell>
        <mxCell id="3dpYSZLMDqSO1D1mwGwg-25" value="&lt;u&gt;NúmeroParcela&lt;/u&gt;" style="rounded=0;whiteSpace=wrap;html=1;" vertex="1" parent="1">
          <mxGeometry x="160" y="1960" width="120" height="40" as="geometry" />
        </mxCell>
        <mxCell id="3dpYSZLMDqSO1D1mwGwg-26" value="FK(Parcela)" style="rounded=0;whiteSpace=wrap;html=1;" vertex="1" parent="1">
          <mxGeometry x="160" y="2000" width="120" height="40" as="geometry" />
        </mxCell>
        <mxCell id="-9cHwT8etmYMdwwajFKF-43" value="Kayak" style="rounded=0;whiteSpace=wrap;html=1;" vertex="1" parent="1">
          <mxGeometry x="40" y="2120" width="120" height="40" as="geometry" />
        </mxCell>
        <mxCell id="-9cHwT8etmYMdwwajFKF-44" value="&lt;u&gt;Numero&lt;/u&gt;" style="rounded=0;whiteSpace=wrap;html=1;" vertex="1" parent="1">
          <mxGeometry x="40" y="2160" width="120" height="40" as="geometry" />
        </mxCell>
        <mxCell id="-9cHwT8etmYMdwwajFKF-46" value="ViajeKayak" style="rounded=0;whiteSpace=wrap;html=1;" vertex="1" parent="1">
          <mxGeometry x="40" y="2480" width="120" height="40" as="geometry" />
        </mxCell>
        <mxCell id="-9cHwT8etmYMdwwajFKF-47" value="TiempoUso" style="rounded=0;whiteSpace=wrap;html=1;" vertex="1" parent="1">
          <mxGeometry x="400" y="2520" width="120" height="40" as="geometry" />
        </mxCell>
        <mxCell id="-9cHwT8etmYMdwwajFKF-48" value="&lt;u&gt;IdCliente&lt;/u&gt;" style="rounded=0;whiteSpace=wrap;html=1;" vertex="1" parent="1">
          <mxGeometry x="40" y="2520" width="120" height="40" as="geometry" />
        </mxCell>
        <mxCell id="-9cHwT8etmYMdwwajFKF-49" value="FK(Cliente)" style="rounded=0;whiteSpace=wrap;html=1;" vertex="1" parent="1">
          <mxGeometry x="40" y="2560" width="120" height="40" as="geometry" />
        </mxCell>
        <mxCell id="-9cHwT8etmYMdwwajFKF-52" value="&lt;u&gt;NumeroKayak&lt;/u&gt;" style="rounded=0;whiteSpace=wrap;html=1;" vertex="1" parent="1">
          <mxGeometry x="160" y="2520" width="120" height="40" as="geometry" />
        </mxCell>
        <mxCell id="-9cHwT8etmYMdwwajFKF-53" value="FK(Kayak)" style="rounded=0;whiteSpace=wrap;html=1;" vertex="1" parent="1">
          <mxGeometry x="160" y="2560" width="120" height="40" as="geometry" />
        </mxCell>
        <mxCell id="PeBr5bx-r6Lxwjta6bj1-1" value="Sendero" style="rounded=0;whiteSpace=wrap;html=1;" vertex="1" parent="1">
          <mxGeometry x="40" y="2680" width="120" height="40" as="geometry" />
        </mxCell>
        <mxCell id="PeBr5bx-r6Lxwjta6bj1-2" value="&lt;u&gt;Nombre&lt;/u&gt;" style="rounded=0;whiteSpace=wrap;html=1;" vertex="1" parent="1">
          <mxGeometry x="40" y="2720" width="120" height="40" as="geometry" />
        </mxCell>
        <mxCell id="jX4_pK3dNUwDb7So7U30-1" value="RecorridoSendero" style="rounded=0;whiteSpace=wrap;html=1;" vertex="1" parent="1">
          <mxGeometry x="40" y="2840" width="120" height="40" as="geometry" />
        </mxCell>
        <mxCell id="jX4_pK3dNUwDb7So7U30-3" value="&lt;u&gt;IdCliente&lt;/u&gt;" style="rounded=0;whiteSpace=wrap;html=1;" vertex="1" parent="1">
          <mxGeometry x="40" y="2880" width="120" height="40" as="geometry" />
        </mxCell>
        <mxCell id="jX4_pK3dNUwDb7So7U30-4" value="FK(Cliente)" style="rounded=0;whiteSpace=wrap;html=1;" vertex="1" parent="1">
          <mxGeometry x="40" y="2920" width="120" height="40" as="geometry" />
        </mxCell>
        <mxCell id="M9JXNK8APjg98wJVb22G-2" value="&lt;u&gt;Fecha&lt;/u&gt;" style="rounded=0;whiteSpace=wrap;html=1;" vertex="1" parent="1">
          <mxGeometry x="280" y="2880" width="120" height="40" as="geometry" />
        </mxCell>
        <mxCell id="F0QFZH5cWh5_XJTmi9Fu-1" value="&lt;u&gt;Fecha&lt;/u&gt;" style="rounded=0;whiteSpace=wrap;html=1;" vertex="1" parent="1">
          <mxGeometry x="280" y="2520" width="120" height="40" as="geometry" />
        </mxCell>
        <mxCell id="pYhfELzW2dbCyxkKtvjx-1" value="AreaPicnic" style="rounded=0;whiteSpace=wrap;html=1;" vertex="1" parent="1">
          <mxGeometry x="40" y="3040" width="120" height="40" as="geometry" />
        </mxCell>
        <mxCell id="pYhfELzW2dbCyxkKtvjx-2" value="&lt;u&gt;Numero&lt;/u&gt;" style="rounded=0;whiteSpace=wrap;html=1;" vertex="1" parent="1">
          <mxGeometry x="40" y="3080" width="120" height="40" as="geometry" />
        </mxCell>
        <mxCell id="ioZDwg7I6vxnexLLTkfR-1" value="Capacidad" style="rounded=0;whiteSpace=wrap;html=1;" vertex="1" parent="1">
          <mxGeometry x="160" y="3080" width="120" height="40" as="geometry" />
        </mxCell>
        <mxCell id="0DRh3nRPid6kw5wbKaDk-1" value="UsoAreaPicnic" style="rounded=0;whiteSpace=wrap;html=1;" vertex="1" parent="1">
          <mxGeometry x="40" y="3200" width="120" height="40" as="geometry" />
        </mxCell>
        <mxCell id="0DRh3nRPid6kw5wbKaDk-2" value="&lt;u&gt;IdCliente&lt;/u&gt;" style="rounded=0;whiteSpace=wrap;html=1;" vertex="1" parent="1">
          <mxGeometry x="40" y="3240" width="120" height="40" as="geometry" />
        </mxCell>
        <mxCell id="0DRh3nRPid6kw5wbKaDk-3" value="FK(Cliente)" style="rounded=0;whiteSpace=wrap;html=1;" vertex="1" parent="1">
          <mxGeometry x="40" y="3280" width="120" height="40" as="geometry" />
        </mxCell>
        <mxCell id="0DRh3nRPid6kw5wbKaDk-4" value="&lt;u&gt;Fecha&lt;/u&gt;" style="rounded=0;whiteSpace=wrap;html=1;" vertex="1" parent="1">
          <mxGeometry x="280" y="3240" width="120" height="40" as="geometry" />
        </mxCell>
        <mxCell id="Vd-XnI_gb6v3i5k1gX---1" value="TipoVisitante" style="rounded=0;whiteSpace=wrap;html=1;" vertex="1" parent="1">
          <mxGeometry x="40" y="3400" width="120" height="40" as="geometry" />
        </mxCell>
        <mxCell id="Vd-XnI_gb6v3i5k1gX---2" value="&lt;u&gt;Procedencia&lt;/u&gt;" style="rounded=0;whiteSpace=wrap;html=1;" vertex="1" parent="1">
          <mxGeometry x="40" y="3440" width="120" height="40" as="geometry" />
        </mxCell>
        <mxCell id="Vd-XnI_gb6v3i5k1gX---4" value="&lt;u&gt;Estatus&lt;/u&gt;" style="rounded=0;whiteSpace=wrap;html=1;" vertex="1" parent="1">
          <mxGeometry x="280" y="3440" width="120" height="40" as="geometry" />
        </mxCell>
        <mxCell id="Vd-XnI_gb6v3i5k1gX---7" value="Visita" style="rounded=0;whiteSpace=wrap;html=1;" vertex="1" parent="1">
          <mxGeometry x="40" y="3760" width="120" height="40" as="geometry" />
        </mxCell>
        <mxCell id="ysPm3dmsf_2ok31-dw_2-2" value="&lt;u&gt;Numero&lt;/u&gt;" style="rounded=0;whiteSpace=wrap;html=1;" vertex="1" parent="1">
          <mxGeometry x="520" y="3800" width="120" height="40" as="geometry" />
        </mxCell>
        <mxCell id="IC0iAQDCUUmbn0ngAsk1-1" value="&lt;u&gt;IdCliente&lt;/u&gt;" style="rounded=0;whiteSpace=wrap;html=1;" vertex="1" parent="1">
          <mxGeometry x="40" y="3800" width="120" height="40" as="geometry" />
        </mxCell>
        <mxCell id="IC0iAQDCUUmbn0ngAsk1-2" value="FK(Cliente)" style="rounded=0;whiteSpace=wrap;html=1;" vertex="1" parent="1">
          <mxGeometry x="40" y="3840" width="120" height="40" as="geometry" />
        </mxCell>
        <mxCell id="IC0iAQDCUUmbn0ngAsk1-3" value="&lt;u&gt;Procedencia&lt;/u&gt;" style="rounded=0;whiteSpace=wrap;html=1;" vertex="1" parent="1">
          <mxGeometry x="160" y="3800" width="120" height="40" as="geometry" />
        </mxCell>
        <mxCell id="IC0iAQDCUUmbn0ngAsk1-4" value="&lt;u&gt;CategoriaPago&lt;/u&gt;" style="rounded=0;whiteSpace=wrap;html=1;" vertex="1" parent="1">
          <mxGeometry x="280" y="3800" width="120" height="40" as="geometry" />
        </mxCell>
        <mxCell id="IC0iAQDCUUmbn0ngAsk1-5" value="&lt;u&gt;Estatus&lt;/u&gt;" style="rounded=0;whiteSpace=wrap;html=1;" vertex="1" parent="1">
          <mxGeometry x="400" y="3800" width="120" height="40" as="geometry" />
        </mxCell>
        <mxCell id="IC0iAQDCUUmbn0ngAsk1-6" value="FK(Visitante)" style="rounded=0;whiteSpace=wrap;html=1;" vertex="1" parent="1">
          <mxGeometry x="160" y="3840" width="360" height="40" as="geometry" />
        </mxCell>
        <mxCell id="T9B27IgLx5InpOxsdxZ3-1" value="TarifaKayak" style="rounded=0;whiteSpace=wrap;html=1;" vertex="1" parent="1">
          <mxGeometry x="40" y="2280" width="120" height="40" as="geometry" />
        </mxCell>
        <mxCell id="T9B27IgLx5InpOxsdxZ3-2" value="&lt;u&gt;NumeroKayak&lt;/u&gt;" style="rounded=0;whiteSpace=wrap;html=1;" vertex="1" parent="1">
          <mxGeometry x="40" y="2320" width="120" height="40" as="geometry" />
        </mxCell>
        <mxCell id="T9B27IgLx5InpOxsdxZ3-3" value="FK(Kayak)" style="rounded=0;whiteSpace=wrap;html=1;" vertex="1" parent="1">
          <mxGeometry x="40" y="2360" width="120" height="40" as="geometry" />
        </mxCell>
        <mxCell id="T9B27IgLx5InpOxsdxZ3-4" value="&lt;u&gt;Monto&lt;/u&gt;" style="rounded=0;whiteSpace=wrap;html=1;" vertex="1" parent="1">
          <mxGeometry x="160" y="2320" width="120" height="40" as="geometry" />
        </mxCell>
        <mxCell id="T9B27IgLx5InpOxsdxZ3-5" value="&lt;u&gt;Moneda&lt;/u&gt;" style="rounded=0;whiteSpace=wrap;html=1;" vertex="1" parent="1">
          <mxGeometry x="280" y="2320" width="120" height="40" as="geometry" />
        </mxCell>
        <mxCell id="T9B27IgLx5InpOxsdxZ3-6" value="Código de moneda según estándar ISO 4217. Por ejemplo, CRC (colones costarricenses), USD (dólares estadounidenses)." style="shape=note;whiteSpace=wrap;html=1;backgroundOutline=1;darkOpacity=0.05;" vertex="1" parent="1">
          <mxGeometry x="400" y="2120" width="160" height="160" as="geometry" />
        </mxCell>
        <mxCell id="6HOiwAm0aDbo6wgQ35Kc-2" value="TarifaVisitante" style="rounded=0;whiteSpace=wrap;html=1;" vertex="1" parent="1">
          <mxGeometry x="40" y="3560" width="120" height="40" as="geometry" />
        </mxCell>
        <mxCell id="_U8iVH29h722EH9pE5_s-1" value="&lt;u&gt;Procedencia&lt;/u&gt;" style="rounded=0;whiteSpace=wrap;html=1;" vertex="1" parent="1">
          <mxGeometry x="40" y="3600" width="120" height="40" as="geometry" />
        </mxCell>
        <mxCell id="_U8iVH29h722EH9pE5_s-2" value="&lt;u&gt;Estatus&lt;/u&gt;" style="rounded=0;whiteSpace=wrap;html=1;" vertex="1" parent="1">
          <mxGeometry x="280" y="3600" width="120" height="40" as="geometry" />
        </mxCell>
        <mxCell id="_U8iVH29h722EH9pE5_s-3" value="&lt;u&gt;Monto&lt;/u&gt;" style="rounded=0;whiteSpace=wrap;html=1;" vertex="1" parent="1">
          <mxGeometry x="400" y="3600" width="120" height="40" as="geometry" />
        </mxCell>
        <mxCell id="_U8iVH29h722EH9pE5_s-4" value="&lt;u&gt;Moneda&lt;/u&gt;" style="rounded=0;whiteSpace=wrap;html=1;" vertex="1" parent="1">
          <mxGeometry x="520" y="3600" width="120" height="40" as="geometry" />
        </mxCell>
        <mxCell id="6s2_SbmTKTO39B6BWGmX-1" value="Combinaciones de permisos sobre entidades del sistema, que fueron autorizadas a cada usuario administrador" style="shape=note;whiteSpace=wrap;html=1;backgroundOutline=1;darkOpacity=0.05;" vertex="1" parent="1">
          <mxGeometry x="440" y="560" width="160" height="160" as="geometry" />
        </mxCell>
        <mxCell id="6s2_SbmTKTO39B6BWGmX-2" value="" style="endArrow=none;dashed=1;html=1;dashPattern=1 3;strokeWidth=2;rounded=0;" edge="1" parent="1" source="EmVSwugjhua0iY-RNRY--4" target="6s2_SbmTKTO39B6BWGmX-1">
          <mxGeometry width="50" height="50" relative="1" as="geometry">
            <mxPoint x="360" y="870" as="sourcePoint" />
            <mxPoint x="873" y="760" as="targetPoint" />
          </mxGeometry>
        </mxCell>
        <mxCell id="oU0huJmUOhVUjSSDEMPW-1" value="&lt;u&gt;NumeroArea&lt;/u&gt;" style="rounded=0;whiteSpace=wrap;html=1;" vertex="1" parent="1">
          <mxGeometry x="160" y="3240" width="120" height="40" as="geometry" />
        </mxCell>
        <mxCell id="oU0huJmUOhVUjSSDEMPW-2" value="FK(AreaPicnic)" style="rounded=0;whiteSpace=wrap;html=1;" vertex="1" parent="1">
          <mxGeometry x="160" y="3280" width="120" height="40" as="geometry" />
        </mxCell>
        <mxCell id="EzOg2C7dH14ZvzWvJUPr-1" value="&lt;u&gt;CategoriaPago&lt;/u&gt;" style="rounded=0;whiteSpace=wrap;html=1;" vertex="1" parent="1">
          <mxGeometry x="160" y="3440" width="120" height="40" as="geometry" />
        </mxCell>
        <mxCell id="EzOg2C7dH14ZvzWvJUPr-2" value="&lt;u&gt;CategoriaPago&lt;/u&gt;" style="rounded=0;whiteSpace=wrap;html=1;" vertex="1" parent="1">
          <mxGeometry x="160" y="3600" width="120" height="40" as="geometry" />
        </mxCell>
        <mxCell id="EzOg2C7dH14ZvzWvJUPr-3" value="FK(TipoVisitante)" style="rounded=0;whiteSpace=wrap;html=1;" vertex="1" parent="1">
          <mxGeometry x="40" y="3640" width="360" height="40" as="geometry" />
        </mxCell>
        <mxCell id="_cOuxwL_ln7kzlh5F8cW-1" value="Cobro" style="rounded=0;whiteSpace=wrap;html=1;" vertex="1" parent="1">
          <mxGeometry x="40" y="3960" width="120" height="40" as="geometry" />
        </mxCell>
        <mxCell id="9DoZowPCmfBiU6svDJ_t-1" value="&lt;u&gt;Codigo&lt;/u&gt;" style="rounded=0;whiteSpace=wrap;html=1;" vertex="1" parent="1">
          <mxGeometry x="40" y="4000" width="120" height="40" as="geometry" />
        </mxCell>
        <mxCell id="9l0rJ2FlVNl4O0yeJf00-2" value="EstadoPago" style="rounded=0;whiteSpace=wrap;html=1;" vertex="1" parent="1">
          <mxGeometry x="760" y="4000" width="120" height="40" as="geometry" />
        </mxCell>
        <mxCell id="cdNZccactJUslBMu3JoY-1" value="Moneda" style="rounded=0;whiteSpace=wrap;html=1;" vertex="1" parent="1">
          <mxGeometry x="400" y="4000" width="120" height="40" as="geometry" />
        </mxCell>
        <mxCell id="cdNZccactJUslBMu3JoY-2" value="Monto" style="rounded=0;whiteSpace=wrap;html=1;" vertex="1" parent="1">
          <mxGeometry x="280" y="4000" width="120" height="40" as="geometry" />
        </mxCell>
        <mxCell id="cdNZccactJUslBMu3JoY-3" value="TipoCambio" style="rounded=0;whiteSpace=wrap;html=1;" vertex="1" parent="1">
          <mxGeometry x="520" y="4000" width="120" height="40" as="geometry" />
        </mxCell>
        <mxCell id="BlWLAsO3mwMPHou-nDRG-1" value="IdCliente" style="rounded=0;whiteSpace=wrap;html=1;" vertex="1" parent="1">
          <mxGeometry x="160" y="4000" width="120" height="40" as="geometry" />
        </mxCell>
        <mxCell id="BlWLAsO3mwMPHou-nDRG-2" value="FK(Cliente)" style="rounded=0;whiteSpace=wrap;html=1;" vertex="1" parent="1">
          <mxGeometry x="160" y="4040" width="120" height="40" as="geometry" />
        </mxCell>
        <mxCell id="9hYeD3mYgTtLFp0dy0rZ-1" value="Capacidad" style="rounded=0;whiteSpace=wrap;html=1;" vertex="1" parent="1">
          <mxGeometry x="160" y="2160" width="120" height="40" as="geometry" />
        </mxCell>
        <mxCell id="9mJ6cZI4VxH0ygxyPV9u-2" value="" style="endArrow=none;dashed=1;html=1;dashPattern=1 3;strokeWidth=2;rounded=0;" edge="1" parent="1" source="T9B27IgLx5InpOxsdxZ3-5" target="T9B27IgLx5InpOxsdxZ3-6">
          <mxGeometry width="50" height="50" relative="1" as="geometry">
            <mxPoint x="500" y="2400" as="sourcePoint" />
            <mxPoint x="550" y="2350" as="targetPoint" />
          </mxGeometry>
        </mxCell>
        <mxCell id="9mJ6cZI4VxH0ygxyPV9u-3" value="Código según estándar ISO 4217. Por ejemplo, CRC (colones costarricenses), USD (dólares estadounidenses)." style="shape=note;whiteSpace=wrap;html=1;backgroundOutline=1;darkOpacity=0.05;" vertex="1" parent="1">
          <mxGeometry x="680" y="3400" width="160" height="160" as="geometry" />
        </mxCell>
        <mxCell id="9mJ6cZI4VxH0ygxyPV9u-4" value="" style="endArrow=none;dashed=1;html=1;dashPattern=1 3;strokeWidth=2;rounded=0;" edge="1" parent="1" source="9mJ6cZI4VxH0ygxyPV9u-3" target="_U8iVH29h722EH9pE5_s-4">
          <mxGeometry width="50" height="50" relative="1" as="geometry">
            <mxPoint x="440" y="3480" as="sourcePoint" />
            <mxPoint x="490" y="3430" as="targetPoint" />
          </mxGeometry>
        </mxCell>
        <mxCell id="u3iGmuoQYHU5E08sKAG_-1" value="Fecha" style="rounded=0;whiteSpace=wrap;html=1;" vertex="1" parent="1">
          <mxGeometry x="640" y="4000" width="120" height="40" as="geometry" />
        </mxCell>
        <mxCell id="1k_SgGyY4mfNyFlXQX6q-1" value="&lt;u&gt;NombreSendero&lt;/u&gt;" style="rounded=0;whiteSpace=wrap;html=1;" vertex="1" parent="1">
          <mxGeometry x="160" y="2880" width="120" height="40" as="geometry" />
        </mxCell>
        <mxCell id="1k_SgGyY4mfNyFlXQX6q-2" value="FK(Sendero)" style="rounded=0;whiteSpace=wrap;html=1;" vertex="1" parent="1">
          <mxGeometry x="160" y="2920" width="120" height="40" as="geometry" />
        </mxCell>
        <mxCell id="nH_AwkIi7U67-Om75pm5-1" value="unique" style="rounded=0;whiteSpace=wrap;html=1;" vertex="1" parent="1">
          <mxGeometry x="160" y="120" width="120" height="40" as="geometry" />
        </mxCell>
        <mxCell id="TaYOKTYqszJLo4tjVtAH-1" value="&lt;u&gt;Nombre&lt;/u&gt;" style="rounded=0;whiteSpace=wrap;html=1;" vertex="1" parent="1">
          <mxGeometry x="40" y="680" width="120" height="40" as="geometry" />
        </mxCell>
        <mxCell id="6Q-LN-iuVSTYAUieE8iZ-1" value="Autorizacion" style="rounded=0;whiteSpace=wrap;html=1;" vertex="1" parent="1">
          <mxGeometry x="40" y="800" width="120" height="40" as="geometry" />
        </mxCell>
        <mxCell id="6Q-LN-iuVSTYAUieE8iZ-2" value="&lt;u&gt;EmailUsuario&lt;/u&gt;" style="rounded=0;whiteSpace=wrap;html=1;" vertex="1" parent="1">
          <mxGeometry x="40" y="840" width="120" height="40" as="geometry" />
        </mxCell>
        <mxCell id="6Q-LN-iuVSTYAUieE8iZ-3" value="FK(Usuario)" style="rounded=0;whiteSpace=wrap;html=1;" vertex="1" parent="1">
          <mxGeometry x="40" y="880" width="120" height="40" as="geometry" />
        </mxCell>
        <mxCell id="6Q-LN-iuVSTYAUieE8iZ-4" value="&lt;u&gt;NombreRol&lt;/u&gt;" style="rounded=0;whiteSpace=wrap;html=1;" vertex="1" parent="1">
          <mxGeometry x="160" y="840" width="120" height="40" as="geometry" />
        </mxCell>
        <mxCell id="6Q-LN-iuVSTYAUieE8iZ-5" value="FK(Rol)" style="rounded=0;whiteSpace=wrap;html=1;" vertex="1" parent="1">
          <mxGeometry x="160" y="880" width="120" height="40" as="geometry" />
        </mxCell>
        <mxCell id="5_whyIzbTb_RU3A8yYqa-1" value="&lt;u&gt;EmailCliente&lt;/u&gt;" style="rounded=0;whiteSpace=wrap;html=1;" vertex="1" parent="1">
          <mxGeometry x="40" y="1440" width="120" height="40" as="geometry" />
        </mxCell>
        <mxCell id="5_whyIzbTb_RU3A8yYqa-2" value="FK(Cliente)" style="rounded=0;whiteSpace=wrap;html=1;" vertex="1" parent="1">
          <mxGeometry x="40" y="1480" width="120" height="40" as="geometry" />
        </mxCell>
        <mxCell id="fozaMVrTasNCWRWLbVaN-1" value="ReservacionParcela" style="rounded=0;whiteSpace=wrap;html=1;" vertex="1" parent="1">
          <mxGeometry x="40" y="1600" width="120" height="40" as="geometry" />
        </mxCell>
        <mxCell id="fozaMVrTasNCWRWLbVaN-2" value="&lt;u&gt;FechaSolicitud&lt;/u&gt;" style="rounded=0;whiteSpace=wrap;html=1;" vertex="1" parent="1">
          <mxGeometry x="160" y="1640" width="120" height="40" as="geometry" />
        </mxCell>
        <mxCell id="fozaMVrTasNCWRWLbVaN-3" value="&lt;u&gt;EmailCliente&lt;/u&gt;" style="rounded=0;whiteSpace=wrap;html=1;" vertex="1" parent="1">
          <mxGeometry x="40" y="1640" width="120" height="40" as="geometry" />
        </mxCell>
        <mxCell id="fozaMVrTasNCWRWLbVaN-4" value="FK(Cliente)" style="rounded=0;whiteSpace=wrap;html=1;" vertex="1" parent="1">
          <mxGeometry x="40" y="1680" width="120" height="40" as="geometry" />
        </mxCell>
        <mxCell id="c3RypQU5IPZVR99HBJYV-1" value="Fecha y hora de solicitud" style="shape=note;whiteSpace=wrap;html=1;backgroundOutline=1;darkOpacity=0.05;" vertex="1" parent="1">
          <mxGeometry x="480" y="1380" width="160" height="160" as="geometry" />
        </mxCell>
        <mxCell id="c3RypQU5IPZVR99HBJYV-2" value="" style="endArrow=none;dashed=1;html=1;dashPattern=1 3;strokeWidth=2;rounded=0;" edge="1" parent="1" source="3dpYSZLMDqSO1D1mwGwg-23" target="c3RypQU5IPZVR99HBJYV-1">
          <mxGeometry width="50" height="50" relative="1" as="geometry">
            <mxPoint x="225" y="1013" as="sourcePoint" />
            <mxPoint x="505" y="1000" as="targetPoint" />
          </mxGeometry>
        </mxCell>
        <mxCell id="x0Ej5v0F0m9laJJIjCVA-1" value="ReservacionServicio" style="rounded=0;whiteSpace=wrap;html=1;" vertex="1" parent="1">
          <mxGeometry x="700" y="1930" width="120" height="40" as="geometry" />
        </mxCell>
        <mxCell id="TD7b3rFCXh4BfRtSwqon-1" value="&lt;u&gt;FechaSolicitud&lt;/u&gt;" style="rounded=0;whiteSpace=wrap;html=1;" vertex="1" parent="1">
          <mxGeometry x="40" y="1840" width="120" height="40" as="geometry" />
        </mxCell>
        <mxCell id="TD7b3rFCXh4BfRtSwqon-2" value="&lt;u&gt;EmailCliente&lt;/u&gt;" style="rounded=0;whiteSpace=wrap;html=1;" vertex="1" parent="1">
          <mxGeometry x="160" y="1840" width="120" height="40" as="geometry" />
        </mxCell>
        <mxCell id="TD7b3rFCXh4BfRtSwqon-3" value="FK(Cliente)" style="rounded=0;whiteSpace=wrap;html=1;" vertex="1" parent="1">
          <mxGeometry x="160" y="1880" width="120" height="40" as="geometry" />
        </mxCell>
      </root>
    </mxGraphModel>
  </diagram>
</mxfile>
